<svg xmlns="http://www.w3.org/2000/svg" width="427.595" height="194.167" viewBox="0 0 427.595 194.167">
    <g data-name="Group 11509">
        <g data-name="Group 11508">
            <g data-name="Group 11445" style="opacity:.3">
                <g data-name="Group 11439">
                    <path data-name="Rectangle 2673" transform="translate(27.85 116.346)" style="fill:#242025;opacity:.1" d="M0 0h118.533v76.903H0z"/>
                    <path data-name="Rectangle 2674" style="fill:#99bfce" d="M0 0h129.446v5.201H0z" transform="translate(22.992 111.145)"/>
                    <path data-name="Rectangle 2675" transform="translate(152.438 111.145)" style="fill:#8ab2bf" d="M0 0h30.107v5.201H0z"/>
                    <path data-name="Rectangle 2676" transform="translate(146.383 116.346)" style="fill:#cde8f7" d="M0 0h32.546v76.903H0z"/>
                    <path data-name="Rectangle 2677" transform="translate(29.256 138.667)" style="fill:#a5c9db" d="M0 0h114.213v1.393H0z"/>
                    <path data-name="Rectangle 2678" transform="translate(29.256 164.858)" style="fill:#a5c9db" d="M0 0h114.213v1.393H0z"/>
                    <path data-name="Path 2825" d="M1265.906 571.732a3.628 3.628 0 1 1-3.617-3.344 3.488 3.488 0 0 1 3.617 3.344z" transform="translate(-1181.535 -443.374)" style="fill:#a5c9db"/>
                    <path data-name="Path 2826" d="M1265.906 596.557a3.628 3.628 0 1 1-3.617-3.344 3.488 3.488 0 0 1 3.617 3.344z" transform="translate(-1181.535 -443.431)" style="fill:#a5c9db"/>
                    <path data-name="Path 2827" d="M1265.906 624.609a3.628 3.628 0 1 1-3.617-3.344 3.488 3.488 0 0 1 3.617 3.344z" transform="translate(-1181.535 -443.496)" style="fill:#a5c9db"/>
                </g>
                <g data-name="Group 11440">
                    <path data-name="Rectangle 2679" transform="translate(40.707 98.884)" style="fill:#a5c9db" d="M0 0h8.438v12.26H0z"/>
                    <path data-name="Rectangle 2680" style="fill:#a5c9db" d="M0 0h11.117v1.981H0z" transform="translate(39.502 96.903)"/>
                    <path data-name="Rectangle 2681" transform="translate(40.707 98.884)" style="fill:#99c1d1" d="M0 0h8.438v.991H0z"/>
                    <path data-name="Rectangle 2682" transform="translate(42.147 102.135)" style="fill:#99c1d1" d="M0 0h5.491v5.82H0z"/>
                </g>
                <g data-name="Group 11441">
                    <path data-name="Rectangle 2683" transform="translate(53.866 98.884)" style="fill:#a5c9db" d="M0 0h8.438v12.26H0z"/>
                    <path data-name="Rectangle 2684" style="fill:#a5c9db" d="M0 0h11.117v1.981H0z" transform="translate(52.661 96.903)"/>
                    <path data-name="Rectangle 2685" transform="translate(53.866 98.884)" style="fill:#99c1d1" d="M0 0h8.438v.991H0z"/>
                    <path data-name="Rectangle 2686" transform="translate(55.306 102.135)" style="fill:#99c1d1" d="M0 0h5.491v5.82H0z"/>
                </g>
                <g data-name="Group 11442">
                    <path data-name="Rectangle 2687" transform="translate(69.369 98.884)" style="fill:#a5c9db" d="M0 0h8.438v12.26H0z"/>
                    <path data-name="Rectangle 2688" style="fill:#a5c9db" d="M0 0h11.117v1.981H0z" transform="translate(68.164 96.903)"/>
                    <path data-name="Rectangle 2689" transform="translate(69.369 98.884)" style="fill:#99c1d1" d="M0 0h8.438v.991H0z"/>
                    <path data-name="Rectangle 2690" transform="translate(70.809 102.135)" style="fill:#99c1d1" d="M0 0h5.491v5.82H0z"/>
                </g>
                <g data-name="Group 11443">
                    <path data-name="Rectangle 2691" transform="translate(103.925 99.875)" style="fill:#a5c9db" d="M0 0h25.582v11.269H0z"/>
                    <path data-name="Rectangle 2692" transform="translate(103.925 99.875)" style="fill:#99c1d1" d="M0 0h25.582v1.393H0z"/>
                    <path data-name="Rectangle 2693" style="fill:#a5c9db" d="M0 0h30.002v3.715H0z" transform="translate(101.514 96.16)"/>
                    <path data-name="Rectangle 2694" transform="translate(107.307 103.157)" style="fill:#99c1d1" d="M0 0h19.287v6.502H0z"/>
                </g>
                <g data-name="Group 11444">
                    <path data-name="Rectangle 2695" transform="translate(143.47 90.34)" style="fill:#a5c9db" d="M0 0h22.501v20.805H0z"/>
                    <path data-name="Rectangle 2696" transform="translate(143.47 90.34)" style="fill:#99c1d1" d="M0 0h22.501v.991H0z"/>
                    <path data-name="Rectangle 2697" style="fill:#a5c9db" d="M0 0h24.859v2.229H0z" transform="translate(142.291 88.111)"/>
                </g>
            </g>
            <g data-name="Group 11487">
                <g data-name="Group 11464">
                    <path data-name="Path 2828" d="M191.101 137.998s.914-3.307 2.13-4.09 35.985-4.128 58.392-4.128 71.859 1.977 71.859 1.977l1.371 6.241z"/>
                    <g data-name="Group 11446">
                        <path data-name="Path 2829" d="M1506.65 584.45H1372.9a.114.114 0 0 1-.114-.114V581.4a.113.113 0 0 1 .114-.115h133.75a.113.113 0 0 1 .114.115v2.934a.114.114 0 0 1-.114.116zm-133.636-.229h133.524v-2.706h-133.524z" transform="translate(-1181.799 -443.404)" style="fill:#350502"/>
                    </g>
                    <g data-name="Group 11447">
                        <path data-name="Path 2830" d="M1386.313 636.453h-3.195a.115.115 0 0 1-.115-.115v-52a.115.115 0 0 1 .115-.115h3.195a.115.115 0 0 1 .114.115v52a.115.115 0 0 1-.114.115zm-3.081-.228h2.967v-51.769h-2.967z" transform="translate(-1181.823 -443.41)" style="fill:#350502"/>
                    </g>
                    <path data-name="Path 2831" d="M1487.788 584.289c-.385 1.26-2.589 12.507-5.022 22.4s-2.359 20.238-3.046 20.159c-.5-.054-1.446-1.164-1.921-1.757-.174-.219-.284-.37-.284-.37-2.359-4.337-5.249-15.52-6.01-24.728s3.728-14.073 3.728-14.073-18.795-10.957-22.268-11.432-8.774.854-12.581 2.744-20.615 9.9-20.615 9.9 2.128 8.445 1.52 14.685-7.382 20.541-8.75 23.053a8.748 8.748 0 0 1-.864 1.3 7.659 7.659 0 0 1-2.56 2.127s-.836-9.585-1.064-17.041-.607-24.5-.378-28.531 1.214-5.4 6.542-10.2a129.728 129.728 0 0 1 15.552-11.435l.684-.107s-4.825 5.138-4.825 5.437 12.248 1.507 16.205 0 6.336-6.45 6.336-6.45a88.138 88.138 0 0 0 8.455 8.835 64.939 64.939 0 0 1 4.759-7.693c.093-.12.176-.224.264-.343l11.378 2.477s8.75 7.91 12.175 12.474 2.969 7.303 2.59 8.569z" transform="translate(-1181.88 -443.354)" style="stroke-width:.5px;stroke:#002226;fill:#e0ebfd"/>
                    <path data-name="Path 2832" d="M1478.051 549.05a22.271 22.271 0 0 0-4.77 1.292 27.072 27.072 0 0 0-3.821 1.841c-.9.515-1.467.9-1.467.9l-2.624-10.2s-.077 4.259 0 7.533c.037 1.553.23 3.669.419 5.452a27.943 27.943 0 0 0-2.362 2.568h-.006c-.517.629-1.1 1.355-1.745 2.2-.088.12-.171.224-.264.343a56.432 56.432 0 0 0-3.823 6c-.323.577-.64 1.145-.936 1.694a88.143 88.143 0 0 1-8.455-8.835s-2.378 4.951-6.336 6.45-16.205.307-16.205 0 4.825-5.437 4.825-5.437l-.17-.155-8.7-8.021-.973-.9c-1.689-2.315-.913-8.667.351-16.249v-.009c.059-.36.119-.72.182-1.087 1.371-8.066 5.551-17.274 7.075-19.172s4.181-2.667 8.824-4.037c1.165-.341 2.333-.7 3.433-1.032 1.48-.456 2.836-.871 3.88-1.191.1-.031.208-.064.306-.091 1.028-.314 1.7-.511 1.79-.511h.009c.055.552.146 1.41.269 2.36a36.349 36.349 0 0 0 .734 4.19 13.3 13.3 0 0 0 .672 1.99 2.1 2.1 0 0 0 .4.67 9.591 9.591 0 0 0 .851-1.242 18.42 18.42 0 0 0 1.66-3.665c.18-.553.376-1.238.586-2 .014-.051.029-.1.044-.161.219-.826.446-1.729.666-2.633 0 0 .493.2 1.323.543.088.037.177.073.274.116.758.314 1.745.728 2.861 1.212 3 1.3 6.962 3.109 10.143 4.862 5.935 3.273 7 7.688 8.526 14.379 1.327 5.844 2.286 16.721 2.507 19.4.023.318.044.514.047.585a.055.055 0 0 0 0 .048z" transform="translate(-1181.907 -443.234)" style="fill:#daf3f6;stroke:#000;stroke-width:.5px"/>
                    <path data-name="Path 2833" d="M1448.257 556.638c-.013-.054-.013-.089.006-.1.037-.02.037.014-.006.1z" transform="translate(-1181.973 -443.346)" style="fill:#f93823"/>
                    <path data-name="Path 2834" d="M1453.429 503.574a276.26 276.26 0 0 1-1 4.341c-.2.849-.421 1.7-.624 2.483h-.006a45.826 45.826 0 0 1-.664 2.31 15.5 15.5 0 0 1-2.511 4.906s-.458-.379-1.071-2.661a36.449 36.449 0 0 1-.756-4.374c-.109-.875-.2-1.662-.246-2.176a.63.63 0 0 1-.009-.088 11.119 11.119 0 0 0 3.908-1.656 13.983 13.983 0 0 0 2.979-3.085z" transform="translate(-1181.97 -443.224)" style="stroke-width:.206px;fill:#f7fcff;stroke:#002226"/>
                    <path data-name="Path 2835" d="M1478.184 549.145a.165.165 0 0 1 0-.028v.028z" transform="translate(-1182.043 -443.329)" style="fill:#ff4e36"/>
                    <path data-name="Path 2836" d="M1450.224 582.792c.026-.033.052-.059.076-.095z" transform="translate(-1181.978 -443.407)" style="fill:#f2b5aa"/>
                    <path data-name="Path 2837" d="m1478.134 548.532.047.584c-.025-.366-.047-.584-.047-.584z" transform="translate(-1182.043 -443.328)" style="fill:#f2b5aa"/>
                    <path data-name="Path 2838" d="M1478.065 556.52c-.532 2.058-3.5 6.777-7.915 10.5s-10.268 8.218-10.268 8.218-1.064 4.337-2.2 5.863-5.329 3.5-5.707 3.112a.371.371 0 0 1-.082-.327 1.618 1.618 0 0 1 .192-.486v-.008a4.171 4.171 0 0 1 .484-.678c-.146.118-2.287 1.874-2.73 1.432a.551.551 0 0 1-.082-.589 2.463 2.463 0 0 1 .364-.708 2.148 2.148 0 0 1-.329.33c-.615.532-1.295.652-1.473.36-.087-.143-.074-.315.059-.586a18.406 18.406 0 0 1 1.919-2.532 33.9 33.9 0 0 0 2.665-3.652c-.577-.856-3.68.756-3.82-.166a.554.554 0 0 1 .012-.217c.305-1.369 4.748-2.083 4.748-2.083s1.172-2.488 2.818-5.518a64.981 64.981 0 0 1 4.759-7.693 41.213 41.213 0 0 1 4.377-5.118 8.746 8.746 0 0 1 2.091-1.5l.114-1.286c0-.006.628-.427 1.606-.983a25.9 25.9 0 0 1 3.683-1.762 22.269 22.269 0 0 1 4.77-1.292c.111 1.558.372 5.717-.055 7.369z" transform="translate(-1181.973 -443.329)" style="stroke-width:.206px;fill:#f7fcff;stroke:#002226"/>
                    <path data-name="Path 2839" d="m1409.015 627.464-9.884 9.732s9.663-1.673 13.847-4.032c0 0-.749-4.593-1.4-6.746z" transform="translate(-1181.86 -443.508)" style="fill:#002226"/>
                    <path data-name="Path 2840" d="m1477.67 624.867-1.441 6.935 12.475 4.63s-7.234-8.486-8.447-10.785z" transform="translate(-1182.038 -443.504)" style="fill:#002226"/>
                    <path data-name="Path 2841" d="M1458.946 499.7c-1.065 1.6-3.656 1.142-3.656 1.142s-.81 1.3-1.881 2.694c-.2.259-.411.529-.624.789a11.379 11.379 0 0 1-2.359 2.3 11.117 11.117 0 0 1-3.908 1.656 5.175 5.175 0 0 1-5.149-2.036c-3.041-3.728-3.346-8.443-3.118-13.772a12.534 12.534 0 0 1 .72-3.737 8.591 8.591 0 0 1 1.9-2.575c.7-.553.995-.557 1.328-.219a1.967 1.967 0 0 0 .283.337c.114.148.236.319.383.512.8 1.022 1.825.968 4.054-.4s3.825-.969 4.45-.116a13.677 13.677 0 0 1 1.484 5.647 6.928 6.928 0 0 0 .647 2.3c.755 1.653 1.96 3.023 2.549 2.676.852-.512.978-1.037 1.3-1.333.731-.62 1.631-1.182 2.349-.955 1.454.444.315 3.49-.752 5.09z" transform="translate(-1181.95 -443.182)" style="stroke-width:.206px;fill:#f7fcff;stroke:#002226"/>
                    <path data-name="Path 2842" d="M1458.022 490.07a24.916 24.916 0 0 1-.663 5.469 11.23 11.23 0 0 0-1.3 1.333c-.86.506-3.024-2.63-3.2-4.972a17.815 17.815 0 0 0-.93-4.528 4.843 4.843 0 0 0-.553-1.118c-.624-.853-2.222-1.256-4.45.116s-3.251 1.422-4.054.4c-.147-.193-.269-.364-.383-.512a3.442 3.442 0 0 0-.283-.337c-.334-.337-.63-.333-1.328.219a8.6 8.6 0 0 0-1.9 2.575.206.206 0 0 1-.018.037c-.078.222-.817-1.764.21-3.727s4.843-4.994 10.124-5.331a7.022 7.022 0 0 1 4.1.949 10.353 10.353 0 0 1 4.491 7.268 15.653 15.653 0 0 1 .137 2.159z" transform="translate(-1181.951 -443.169)" style="fill:#001a35"/>
                    <path data-name="Path 2843" d="M1456.1 496.907c.854-.508.975-1.033 1.307-1.331a11.3 11.3 0 0 0-1.307 1.331z" transform="translate(-1181.992 -443.205)" style="fill:#510503"/>
                    <path data-name="Path 2844" d="M1461.8 574.171c-.524.441-2.907-1.411-3.043-1.516.11.133 2.111 2.6 1.444 3.114s-3.132-1.342-3.27-1.443c2.06 2.233 1.878 3.128.755 2.817a4.723 4.723 0 0 1-1.364-.69 39.745 39.745 0 0 1-5.48-5.4c-6.545-2.282-15.676-5.554-20.468-9.513s-9.357-8.216-9.737-9.662a10.234 10.234 0 0 1 2.343-2.8 3.771 3.771 0 0 1 .474-.318 13.729 13.729 0 0 1 7.227-1.215c2.739.227 5.4 2.128 9.434 6.007s12.1 12.711 12.1 12.711 2.739.378 5.17.607 3.73 1.063 3.8 1.9-2.433.53-2.433.53 3.573 4.414 3.048 4.871z" transform="translate(-1181.91 -443.325)" style="stroke-width:.206px;fill:#f7fcff;stroke:#002226"/>
                    <g data-name="Group 11448">
                        <path data-name="Path 2845" d="M1456.69 517.045a.152.152 0 0 1-.081.052c-.111.017-.328-.11-2.211-1.442-.986-.694-2.105-1.485-2.337-1.571h-.011c-.323 0-1.982 1.863-3.353 3.611a.127.127 0 0 1-.091.046.1.1 0 0 1-.088-.042l-2.95-3.615-4.783 2.579a.118.118 0 0 1-.137-.018.113.113 0 0 1-.023-.134l3.8-7.5c.1-.031.207-.064.306-.091l-3.731 7.369 4.551-2.451a.112.112 0 0 1 .141.027l2.519 3.091.4.489c.229-.3.528-.667.851-1.061 1.019-1.232 2.307-2.662 2.687-2.514a26.181 26.181 0 0 1 2.385 1.6c.7.494 1.539 1.087 1.9 1.31-.266-.954-1.6-5.011-2.7-8.313.088.037.178.073.274.116 2.778 8.308 2.717 8.404 2.682 8.462z" transform="translate(-1181.956 -443.235)" style="fill:#350502"/>
                    </g>
                    <g data-name="Group 11449">
                        <path data-name="Path 2846" d="M1448.377 560.825a.114.114 0 0 1-.114-.114c0-.146-.134-14.691 0-21.914s.245-21.013.247-21.151a.111.111 0 0 1 .114-.112.116.116 0 0 1 .113.115c0 .139-.113 13.931-.247 21.152s0 21.762 0 21.91a.114.114 0 0 1-.113.114z" transform="translate(-1181.973 -443.256)" style="fill:#350502"/>
                    </g>
                    <g data-name="Group 11450">
                        <path data-name="Path 2847" d="M1461.507 561.144a.127.127 0 0 1-.063-.019.114.114 0 0 1-.031-.158 26.405 26.405 0 0 1 6.455-6.622l.107-1.213c-.115-.435-2.105-7.906-2.622-10.183-.518-2.3-.679-13.566 1.079-18.1a.114.114 0 0 1 .213.084c-1.746 4.5-1.585 15.679-1.066 17.965.525 2.328 2.6 10.116 2.621 10.194a.1.1 0 0 1 0 .041l-.114 1.286a.1.1 0 0 1-.052.085 25.882 25.882 0 0 0-6.437 6.59.108.108 0 0 1-.09.05z" transform="translate(-1182.004 -443.273)" style="fill:#350502"/>
                    </g>
                    <g data-name="Group 11451">
                        <path data-name="Path 2848" d="M1465.893 556.071a.114.114 0 0 1-.11-.092c-.535-2.477-.46-12.22-.455-12.634a.111.111 0 0 1 .113-.112.113.113 0 0 1 .114.115c0 .1-.078 10.132.452 12.584a.116.116 0 0 1-.088.136l-.026.003z" transform="translate(-1182.013 -443.316)" style="fill:#350502"/>
                    </g>
                    <g data-name="Group 11452">
                        <path data-name="Path 2849" d="M1420.636 551.943a.082.082 0 0 1-.043-.008.115.115 0 0 1-.064-.147 7.629 7.629 0 0 1 5.41-4.095 12.768 12.768 0 0 1 6.672.12c.022-1.118.134-7.849-.166-11.347a66.3 66.3 0 0 0-1.648-10.549.115.115 0 0 1 .22-.068 66.508 66.508 0 0 1 1.655 10.6c.328 3.815.166 11.455.165 11.531a.117.117 0 0 1-.052.093.113.113 0 0 1-.105.01 12.117 12.117 0 0 0-6.69-.163 7.4 7.4 0 0 0-5.248 3.952.112.112 0 0 1-.106.071z" transform="translate(-1181.91 -443.275)" style="fill:#350502"/>
                    </g>
                    <g data-name="Group 11453">
                        <path data-name="Path 2850" d="M1439.793 553.422a.2.2 0 0 1-.143-.06 27.364 27.364 0 0 0-6.985-5.153.2.2 0 0 1-.1-.268.206.206 0 0 1 .268-.1 27.8 27.8 0 0 1 7.1 5.235.2.2 0 0 1-.143.344z" transform="translate(-1181.937 -443.326)" style="fill:#350502"/>
                    </g>
                    <g data-name="Group 11454">
                        <path data-name="Path 2851" d="M1425.669 566.539a.115.115 0 0 1-.076-.029.118.118 0 0 1-.01-.163l4.47-5.056a.111.111 0 0 1 .161-.01.114.114 0 0 1 .01.161l-4.47 5.056a.107.107 0 0 1-.085.041z" transform="translate(-1181.921 -443.357)" style="fill:#350502"/>
                    </g>
                    <g data-name="Group 11455">
                        <path data-name="Path 2852" d="M1434.728 564.538a.131.131 0 0 1-.052-.012 32.461 32.461 0 0 1-6.268-4.474.113.113 0 1 1 .156-.164 32.52 32.52 0 0 0 6.215 4.435.114.114 0 0 1 .052.153.119.119 0 0 1-.103.062z" transform="translate(-1181.928 -443.354)" style="fill:#350502"/>
                    </g>
                    <g data-name="Group 11456">
                        <path data-name="Path 2853" d="M1458.087 577.393c-.8 0-2.135-1.078-3.649-2.376a38.023 38.023 0 0 1-3.615-3.848.114.114 0 0 1 .177-.144 37.443 37.443 0 0 0 3.588 3.818c1.172 1.006 3.138 2.687 3.751 2.251a.194.194 0 0 0 .075-.144c.068-.566-1.063-2-1.5-2.505a.114.114 0 0 1 .16-.162c.677.593 2.552 2.009 3.113 1.447s-.852-2.321-1.445-2.952a.119.119 0 0 1 0-.158.113.113 0 0 1 .154-.01c.858.714 2.293 1.734 2.77 1.631a.122.122 0 0 0 .1-.076c.227-.487-1.74-3.172-3.027-4.751a.114.114 0 0 1 .087-.184h.061a5.045 5.045 0 0 0 2.265-.334.033.033 0 0 0 0-.039 1.186 1.186 0 0 1-.047-.128c-.179-.544-.549-1.673-8.547-2.274a.117.117 0 0 1-.1-.122.114.114 0 0 1 .123-.106c8.148.612 8.536 1.794 8.746 2.428a.825.825 0 0 0 .039.115.26.26 0 0 1-.025.255c-.244.362-1.647.422-2.274.432.8.993 3.237 4.1 2.908 4.8a.346.346 0 0 1-.253.2c-.452.1-1.4-.5-2.11-1.017.6.788 1.275 1.915.744 2.445-.545.547-1.787-.188-2.622-.8a3.771 3.771 0 0 1 .912 1.883.406.406 0 0 1-.169.3.642.642 0 0 1-.39.125z" transform="translate(-1181.979 -443.369)" style="fill:#350502"/>
                    </g>
                    <g data-name="Group 11457">
                        <path data-name="Path 2854" d="M1454.812 580.7a17.4 17.4 0 0 1-2.916 3.255 1.615 1.615 0 0 1 .192-.486v-.008a15.8 15.8 0 0 0 2.528-2.878.1.1 0 0 1 .155-.038.107.107 0 0 1 .041.155z" transform="translate(-1181.982 -443.402)" style="fill:#350502"/>
                    </g>
                    <g data-name="Group 11458">
                        <path data-name="Path 2855" d="M1452.9 580c-.851 1.131-2.277 2.693-3.144 3.625a2.646 2.646 0 0 1 .464-.836 2.565 2.565 0 0 1-.429.458c.872-.941 2.14-2.341 2.922-3.388a.121.121 0 0 1 .166-.019.115.115 0 0 1 .021.16z" transform="translate(-1181.977 -443.4)" style="fill:#350502"/>
                    </g>
                    <g data-name="Group 11459">
                        <path data-name="Path 2856" d="M1468.1 553.282a.115.115 0 0 1-.063-.208 25.858 25.858 0 0 1 10-4.044l-.508-5.529a96.882 96.882 0 0 0-10.7 4.716.114.114 0 0 1-.106-.2 96.627 96.627 0 0 1 10.873-4.777.121.121 0 0 1 .1.012.122.122 0 0 1 .052.087l.53 5.783a.115.115 0 0 1-.1.125 25.514 25.514 0 0 0-10.006 4.015.114.114 0 0 1-.072.02z" transform="translate(-1182.017 -443.315)" style="fill:#350502"/>
                    </g>
                    <g data-name="Group 11460">
                        <path data-name="Path 2857" d="M1422.806 554.826a.112.112 0 0 1-.079-.035c-3.232-3.087-3.117-5.871-3.11-5.991a24.375 24.375 0 0 1 .077-4.621.114.114 0 0 1 .055-.087c5.087-3.019 12.955-1.711 13.033-1.7a.114.114 0 0 1-.038.224c-.079-.014-7.814-1.3-12.828 1.64a23.984 23.984 0 0 0-.072 4.528c0 .055-.109 2.828 3.041 5.84a.116.116 0 0 1 0 .164.115.115 0 0 1-.079.038z" transform="translate(-1181.907 -443.313)" style="fill:#350502"/>
                    </g>
                    <g data-name="Group 11461">
                        <path data-name="Path 2858" d="M1413.007 633.277a.113.113 0 0 1-.114-.109 44.967 44.967 0 0 0-1.4-6.721.114.114 0 0 1 .219-.062 44.177 44.177 0 0 1 1.407 6.774.113.113 0 0 1-.11.117z" transform="translate(-1181.889 -443.508)" style="fill:#350502"/>
                    </g>
                    <path data-name="Path 2859" d="M1447.4 523.272c0 .347-.131.627-.3.627s-.291-.28-.291-.627.131-.63.291-.63.3.281.3.63z" transform="translate(-1181.97 -443.268)" style="fill:#350502"/>
                    <path data-name="Path 2860" d="M1447.4 533.8c0 .346-.131.628-.3.628s-.291-.281-.291-.628.131-.628.291-.628.3.275.3.628z" transform="translate(-1181.97 -443.292)" style="fill:#350502"/>
                    <path data-name="Path 2861" d="M1447.4 545.145c0 .345-.131.627-.3.627s-.291-.281-.291-.627.131-.629.291-.629.3.284.3.629z" transform="translate(-1181.97 -443.319)" style="fill:#350502"/>
                    <path data-name="Path 2862" d="M1447.107 555.37c0 .343-.13.628-.292.628s-.292-.284-.292-.628.132-.631.292-.631.292.284.292.631z" transform="translate(-1181.97 -443.342)" style="fill:#350502"/>
                    <g data-name="Group 11462">
                        <path data-name="Path 2863" d="M1497.648 636.453h-3.195a.113.113 0 0 1-.114-.115v-52a.113.113 0 0 1 .114-.115h3.195a.115.115 0 0 1 .115.115v52a.115.115 0 0 1-.115.115zm-3.081-.228h2.967v-51.769h-2.967z" transform="translate(-1182.08 -443.41)" style="fill:#350502"/>
                    </g>
                    <g data-name="Group 11463">
                        <path data-name="Path 2864" d="M1488.2 636.368a.079.079 0 0 1-.038-.008l-11.979-4.444a.114.114 0 0 1-.071-.13l.868-4.168a.118.118 0 0 1 .136-.09.117.117 0 0 1 .089.136l-.85 4.074 11.885 4.409a.115.115 0 0 1-.04.222z" transform="translate(-1182.038 -443.51)" style="fill:#350502"/>
                    </g>
                    <path data-name="Path 2865" d="M1458.053 490.072a24.916 24.916 0 0 1-.663 5.469 11.258 11.258 0 0 0-1.3 1.333c-.86.506-3.024-2.63-3.2-4.971a17.8 17.8 0 0 0-.93-4.528c1.374-1.366 1.683-4.023 1.462-6.728a10.354 10.354 0 0 1 4.491 7.268 15.65 15.65 0 0 1 .14 2.157z" transform="translate(-1181.982 -443.171)" style="fill:#00060c"/>
                </g>
                <g data-name="Group 11486">
                    <path data-name="Path 2866" d="M1377.15 633.749s-.65.231-1.272.413a2.515 2.515 0 0 1-1.1.185c-.247-.166-8.13-16.356-10.022-24.649s1.647-16.9 1.647-16.9c-2.046-6.78-6.547-26.031-6.522-26.45a93.949 93.949 0 0 0 2.437-12.083l1.724 20.5s6.817-.476 12.231-1.316c.008.291.011.617.016.965.044 2.913.139 7.775.287 13.375.245 9.111.574 45.96.574 45.96z" transform="translate(-1181.769 -443.341)" style="fill:#daf3f6;stroke:#000;stroke-width:.5px"/>
                    <path data-name="Path 2867" d="M1386.251 521.255c-.068.764-.118 1.188-.118 1.188s.276.95-2.743 3.477a9.677 9.677 0 0 1-6.206 2.237c-.142 0-.217-.005-.217-.005l3.5 44.272a40.162 40.162 0 0 1-4.265.841c-5.415.84-12.231 1.316-12.231 1.316l-1.724-20.5c-.024.5-.108 1.159-.226 1.923-.1.624-.232 1.33-.379 2.081-.472 2.4-1.158 5.331-1.833 8.079-1.167 4.729-2.3 8.911-2.3 8.911a57 57 0 0 1-7.131 1.026 36.83 36.83 0 0 1-11.5-.715 22.466 22.466 0 0 1-3.293-1.048 12.314 12.314 0 0 1-2.874-1.543 77.661 77.661 0 0 1 .609-8.621c.679-6.4 2.343-12.863 3.387-18.955s3.015-19.08 3.015-19.08c-5.041.121-8.061-1.849-9.045-5.049-.02-.069-.04-.137-.06-.214-.9-3.444-.154-13.921 1.354-21.452 1.538-7.7 3.629-13.911 7.446-16.373a55.763 55.763 0 0 1 10.148-4.478c1.006-.349 1.913-.65 2.63-.879.088-.028.177-.054.261-.079.378-.123.7-.218.936-.289l.858-.412.536-.255h.005a7.736 7.736 0 0 0 .324.977 6.5 6.5 0 0 0 2.143 2.565 3.434 3.434 0 0 0 2.472.757c.428-.079.778-.567 1.058-1.271a14.425 14.425 0 0 0 .732-3.028l1.129.359c.67.221 1.566.5 2.591.828.084.031.172.054.26.085.11.033.221.067.337.106 4.268 1.379 10.355 3.483 12.295 5.262 2.152 1.968 7.021 10.892 8.007 20.927a96.36 96.36 0 0 1 .112 17.029z" transform="translate(-1181.701 -443.162)" style="stroke-width:.5px;stroke:#002226;fill:#e0ebfd"/>
                    <path data-name="Path 2868" d="M1350.385 576.328c-.048.381-.107.875-.182 1.456-.458 3.646-1.334 10.93-1.919 17.6-.823 9.358-3.446 39.008-3.446 39.008l-2.027.963-.683.325s-6.157-21.421-7.632-30.561a23.34 23.34 0 0 1 2.871-16.058c-.079-3.033-1.786-14.5-1.786-14.5h.007c2.744 1.124 7.545 2.339 14.797 1.767z" transform="translate(-1181.71 -443.388)" style="fill:#daf3f6;stroke:#000;stroke-width:.5px"/>
                    <path data-name="Path 2869" d="M1377.03 508.844c-.062 2.256.006 5.7-1.584 1.443.32.951.915 2.987.353 3.546-.737.738-1.658-2.345-1.658-2.157s.855 2.157.429 2.768a.189.189 0 0 1-.169.087c-.611-.023-2.088-2.391-2.088-2.391s1.146 2.245-2.877 4.951c-2.472 1.661-8.163 3.2-8.163 3.2a7.521 7.521 0 0 1 .352-3.363 16.113 16.113 0 0 1 .548-1.527 29.109 29.109 0 0 1 1.774-3.806c.986-.919 7.749-7.513 10.335-7.146s2.812 2.057 2.748 4.395z" transform="translate(-1181.772 -443.226)" style="stroke-width:.206px;fill:#f7fcff;stroke:#002226"/>
                    <path data-name="Path 2870" d="M1342.147 635.819a3.739 3.739 0 0 1 3.776-2.293c2.79.258 7.548 3.686 7.548 3.686h-11.324z" transform="translate(-1181.728 -443.524)" style="fill:#002226"/>
                    <path data-name="Path 2871" d="m1374.891 634.233-.828 2.979h11s-6.8-5.625-10.172-2.979z" transform="translate(-1181.802 -443.524)" style="fill:#002226"/>
                    <path data-name="Path 2872" d="m1363.78 521.669 8.7-.738 37.342-24.62-9.682 1.1z" transform="translate(-1181.778 -443.207)" style="stroke-width:.206px;fill:#daf3f6;stroke:#000"/>
                    <path data-name="Path 2873" d="M1395.176 510.19a72.08 72.08 0 0 1-3.826 6.21c-2.013 2.961-4.1 5.6-5.1 6.1-1.724.865-3.822-.615-3.634-3.386a4.768 4.768 0 0 1 .653-1.976 14.138 14.138 0 0 1 3.286-3.623c.739-2.587 2.893-6.771 3.751-6.649s-.305 4-.305 4 2.955-6.71 3.881-6.376c.88.325.075 2.719 0 2.915 1.537-2.773 3.612-6.406 5.037-5.835.631.25-1.468 4.376-3.743 8.62z" transform="translate(-1181.822 -443.219)" style="stroke-width:.206px;fill:#f7fcff;stroke:#002226"/>
                    <path data-name="Path 2874" d="M1346.649 496.3a3.817 3.817 0 1 1 3.816 3.813 3.816 3.816 0 0 1-3.816-3.813z" transform="translate(-1181.739 -443.198)" style="fill:#002226"/>
                    <path data-name="Path 2875" d="M1349.075 496.309a1.4 1.4 0 1 1 1.4 1.395 1.4 1.4 0 0 1-1.4-1.395z" transform="translate(-1181.744 -443.204)" style="stroke-width:.206px;fill:#f7fcff;stroke:#002226"/>
                    <path data-name="Path 2876" d="M1395.8 514.624a.308.308 0 0 1-.022.03.953.953 0 0 1-.153.138 1.573 1.573 0 0 1 .175-.168z" transform="translate(-1181.852 -443.249)" style="fill:#f3938d"/>
                    <g data-name="Group 11465">
                        <path data-name="Path 2877" d="M1363.178 534.821c-.27 4.2-.525 8.157-.588 10.871-.071 2.947-.278 6.883-.494 10.412-.1.624-.231 1.33-.379 2.081.255-3.977.542-8.956.626-12.5.063-2.712.32-6.677.59-10.876.409-6.359.832-12.932.578-15.177a.118.118 0 0 1 .107-.135.115.115 0 0 1 .133.109c.262 2.264-.162 8.847-.573 15.215z" transform="translate(-1181.773 -443.26)" style="fill:#350502"/>
                    </g>
                    <g data-name="Group 11466">
                        <path data-name="Path 2878" d="M1340.042 526.421c-4.41 0-5.913-1.082-5.992-1.142a.123.123 0 1 1 .146-.2c.025.018 2.553 1.818 10.567.751 7.851-1.044 13.541-3.333 16.273-5.138l.052-.4a.119.119 0 0 1 .1-.1 27.682 27.682 0 0 0 7.208-2.655c3.4-1.883 4.487-3.43 3.739-5.334a.124.124 0 0 1 .223-.107c.711 1.251 1.657 2.493 1.923 2.346a.122.122 0 0 1 .117.215c-.458.252-1.265-.847-1.807-1.7.213 1.671-1.036 3.113-4.076 4.8a27.963 27.963 0 0 1-7.2 2.658l-.045.368a.129.129 0 0 1-.055.086c-2.733 1.825-8.485 4.153-16.424 5.21a36.236 36.236 0 0 1-4.749.342z" transform="translate(-1181.709 -443.243)" style="fill:#350502"/>
                    </g>
                    <g data-name="Group 11467">
                        <path data-name="Path 2879" d="M1341.734 513.576a.123.123 0 0 1-.115-.164 63.437 63.437 0 0 0 2.743-11.076 19.428 19.428 0 0 0-1.833-9.8.123.123 0 1 1 .218-.112 19.7 19.7 0 0 1 1.861 9.939 62.684 62.684 0 0 1-2.7 10.951c.989-.062 5.763-.379 9.923-.87 4.469-.524 11.566-1.105 12.182-1.153.417-.385 4.247-3.9 5.634-4.847a.12.12 0 0 1 .171.034.126.126 0 0 1-.031.171c-1.423.971-5.6 4.813-5.64 4.852a.133.133 0 0 1-.074.032c-.073.006-7.567.611-12.213 1.156s-10.067.877-10.12.884z" transform="translate(-1181.727 -443.198)" style="fill:#350502"/>
                    </g>
                    <g data-name="Group 11468">
                        <path data-name="Path 2880" d="M1340.356 517.542a.122.122 0 0 1-.069-.021.124.124 0 0 1-.031-.172 21.865 21.865 0 0 0 1.358-3.88.123.123 0 1 1 .238.065 21.345 21.345 0 0 1-1.393 3.957.128.128 0 0 1-.103.051z" transform="translate(-1181.723 -443.246)" style="fill:#350502"/>
                    </g>
                    <g data-name="Group 11469">
                        <path data-name="Path 2881" d="M1364.215 507.37v.012l-.17 4.158a.125.125 0 0 1-.012.053c-.031.053-2.96 5.26-2.662 8.627a.119.119 0 0 1-.113.132h-.009a.121.121 0 0 1-.122-.11c-.3-3.362 2.421-8.289 2.672-8.744l.163-4.12a18.084 18.084 0 0 0-2.694-5.421l-6.708-9.432a.133.133 0 0 1-.009-.129l2.5-5.108-5.784-.362a.112.112 0 0 1-.089-.036.161.161 0 0 1-.031-.095c.024-.3.557-6.376 1.094-9.1.088-.028.178-.054.261-.079-.5 2.436-1.015 8.153-1.1 9.073l5.848.364a.122.122 0 0 1 .1.06.129.129 0 0 1 0 .116l-2.545 5.207c.463.663 4.676 6.591 6.658 9.383a19.254 19.254 0 0 1 2.625 5.106c.083.255.118.4.118.407s.009.024.009.038z" transform="translate(-1181.749 -443.164)" style="fill:#350502"/>
                    </g>
                    <g data-name="Group 11470">
                        <path data-name="Path 2882" d="M1367.935 491.8c-.343 3.989-3.5 14.916-3.69 15.567v.012a.038.038 0 0 0-.006.016.131.131 0 0 1-.118.09h-.034a.127.127 0 0 1-.086-.155c0-.013.046-.157.12-.407v-.005c.6-2.088 3.236-11.45 3.57-15.1a41.6 41.6 0 0 0-3.659-5.29.13.13 0 0 1-.019-.155l3.221-5.388-1.661-3.056c.11.033.221.067.337.106l1.57 2.9a.114.114 0 0 1 0 .118l-3.207 5.363a43.961 43.961 0 0 1 3.648 5.311.132.132 0 0 1 .014.073z" transform="translate(-1181.779 -443.165)" style="fill:#350502"/>
                    </g>
                    <g data-name="Group 11471">
                        <path data-name="Path 2883" d="M1364.112 508.2h-.008a.121.121 0 0 1-.116-.129 51.461 51.461 0 0 0-1.029-8.529 56.114 56.114 0 0 0-1.684-7.365.123.123 0 0 1 .079-.159.121.121 0 0 1 .153.08 56.135 56.135 0 0 1 1.7 7.4 51.373 51.373 0 0 1 1.033 8.582.126.126 0 0 1-.128.12z" transform="translate(-1181.772 -443.197)" style="fill:#350502"/>
                    </g>
                    <g data-name="Group 11472">
                        <path data-name="Path 2884" d="M1376.117 505.277a.131.131 0 0 1-.088-.03c-.094-.068-.131-.25-.253-1.3a11.773 11.773 0 0 0-.274-1.714.119.119 0 0 1 .075-.155.125.125 0 0 1 .159.076 12.158 12.158 0 0 1 .286 1.765 8.1 8.1 0 0 0 .173 1.156.111.111 0 0 1 .016.163.114.114 0 0 1-.094.039z" transform="translate(-1181.805 -443.22)" style="fill:#350502"/>
                    </g>
                    <g data-name="Group 11473">
                        <path data-name="Path 2885" d="M1377.172 529.622a.12.12 0 0 1-.122-.107 46.771 46.771 0 0 0-.92-5.17 26.909 26.909 0 0 1-.635-5.413.123.123 0 0 1 .121-.124.123.123 0 0 1 .122.124 26.869 26.869 0 0 0 .628 5.355 46.752 46.752 0 0 1 .928 5.2.126.126 0 0 1-.109.138z" transform="translate(-1181.805 -443.259)" style="fill:#350502"/>
                    </g>
                    <g data-name="Group 11474">
                        <path data-name="Path 2886" d="M1377.908 528.42c-.753 0-1-.238-1.017-.259a.122.122 0 0 1 0-.174.124.124 0 0 1 .172 0c.017.014.862.732 4.344-.766a.127.127 0 0 1 .164.068.122.122 0 0 1-.065.16 9.617 9.617 0 0 1-3.598.971z" transform="translate(-1181.809 -443.279)" style="fill:#350502"/>
                    </g>
                    <g data-name="Group 11475">
                        <path data-name="Path 2887" d="M1332.658 496.4a.088.088 0 0 1-.031 0 .123.123 0 0 1-.089-.148c.018-.074 1.806-7.159 3.876-10.24 1.938-2.882 6.095-4.763 6.909-5.111l.122-.053a.122.122 0 0 1 .164.06.125.125 0 0 1-.063.165l-.1.045c-.828.354-4.928 2.2-6.828 5.034-2.042 3.042-3.822 10.09-3.841 10.16a.125.125 0 0 1-.119.088z" transform="translate(-1181.707 -443.171)" style="fill:#350502"/>
                    </g>
                    <g data-name="Group 11476">
                        <path data-name="Path 2888" d="M1364.051 574.925a.124.124 0 0 1-.124-.114.126.126 0 0 1 .117-.132c.13-.005 12.93-.777 16.459-2.148a.127.127 0 0 1 .159.068.125.125 0 0 1-.069.164c-3.565 1.385-16.006 2.132-16.536 2.162z" transform="translate(-1181.779 -443.383)" style="fill:#350502"/>
                    </g>
                    <g data-name="Group 11477">
                        <path data-name="Path 2889" d="M1371.965 505.271a.133.133 0 0 1-.106-.059l-2.819-4.563a.122.122 0 0 1 .209-.127l2.821 4.561a.122.122 0 0 1-.041.167.106.106 0 0 1-.064.021z" transform="translate(-1181.791 -443.217)" style="fill:#350502"/>
                    </g>
                    <g data-name="Group 11478">
                        <path data-name="Path 2890" d="M1350.866 496.383a.12.12 0 0 1-.121-.121c-.019-.651-.408-16.045 0-18.652.419-2.693 4.1-2.893 4.136-2.893a.115.115 0 0 1 .129.116.123.123 0 0 1-.118.129c-.034 0-3.515.192-3.9 2.686-.4 2.584 0 18.449 0 18.609a.123.123 0 0 1-.119.127z" transform="translate(-1181.748 -443.157)" style="stroke-width:.206px;fill:#f7fcff;stroke:#002226"/>
                    </g>
                    <g data-name="Group 11479">
                        <path data-name="Path 2891" d="M1370.536 489.743a.122.122 0 0 1-.117-.088c-.03-.086-2.751-8.9-3.8-11.44-1.029-2.488-5.377-3.248-5.42-3.254a.128.128 0 0 1-.1-.144.122.122 0 0 1 .143-.1c.184.031 4.526.792 5.61 3.4 1.055 2.554 3.781 11.374 3.809 11.461a.123.123 0 0 1-.08.155.091.091 0 0 1-.045.01z" transform="translate(-1181.772 -443.157)" style="fill:#350502"/>
                    </g>
                    <g data-name="Group 11480">
                        <path data-name="Path 2892" d="M1372.45 501.645a.87.87 0 0 1-.339-.074 1.621 1.621 0 0 1-.8-.965 79.343 79.343 0 0 1-1.65-9.637 1.372 1.372 0 0 1 .825-1.428c.331-.113 1.216-.21 2.271 1.349a79.29 79.29 0 0 1 4.317 8.8.128.128 0 0 1-.03.137l-.872.822a.123.123 0 0 1-.174-.005.121.121 0 0 1 .005-.175l.811-.76a76.121 76.121 0 0 0-4.26-8.686c-.676-1-1.4-1.453-1.986-1.248a1.119 1.119 0 0 0-.661 1.172 77.456 77.456 0 0 0 1.634 9.567c.434 1.089 1.044.864 1.069.856a.121.121 0 0 1 .16.067.123.123 0 0 1-.065.161.715.715 0 0 1-.255.047z" transform="translate(-1181.792 -443.191)" style="fill:#350502"/>
                    </g>
                    <path data-name="Path 2893" d="M1373.38 501.386c0 .69-.245 1.251-.542 1.251s-.542-.561-.542-1.251.242-1.252.542-1.252.542.559.542 1.252z" transform="translate(-1181.798 -443.216)" style="fill:#350502"/>
                    <path data-name="Path 2894" d="M1376.115 500.371c.271.635.269 1.246-.005 1.365s-.718-.3-.991-.938-.269-1.246 0-1.364.722.302.996.937z" transform="translate(-1181.804 -443.214)" style="fill:#350502"/>
                    <g data-name="Group 11481">
                        <path data-name="Path 2895" d="M1350.465 500.249h-.01a4.084 4.084 0 0 1-3.93-3.937.126.126 0 0 1 .122-.128.131.131 0 0 1 .124.125 3.786 3.786 0 0 0 3.7 3.692.128.128 0 0 1 .115.132.124.124 0 0 1-.121.116z" transform="translate(-1181.738 -443.207)" style="fill:#350502"/>
                    </g>
                    <g data-name="Group 11482">
                        <path data-name="Path 2896" d="M1350.47 497.826h-.011a1.611 1.611 0 0 1-1.506-1.688.111.111 0 0 1 .127-.116.122.122 0 0 1 .118.127 1.356 1.356 0 0 0 1.284 1.434.122.122 0 0 1-.011.243z" transform="translate(-1181.745 -443.207)" style="fill:#350502"/>
                    </g>
                    <g data-name="Group 11483">
                        <path data-name="Path 2897" d="M1372.481 512.5a.122.122 0 0 1-.1-.059 6.728 6.728 0 0 1-.862-2.3.122.122 0 1 1 .241-.036 6.687 6.687 0 0 0 .827 2.2.119.119 0 0 1-.039.168.112.112 0 0 1-.067.027z" transform="translate(-1181.797 -443.238)" style="fill:#350502"/>
                    </g>
                    <path data-name="Path 2898" d="m1362.7 477.017-.768 17.36s-5.416-11.878-6.463-14.036a12.587 12.587 0 0 1-1.167-3.427l.536-.255h.005a7.728 7.728 0 0 0 .324.977c.675 1.6 2.828 3.632 4.615 3.322.94-.163 1.485-2.307 1.79-4.3z" transform="translate(-1181.756 -443.162)" style="fill:#002226"/>
                    <path data-name="Path 2899" d="M1368.622 467.351c-.594 4.9-3.645 6.528-6.765 6.636a11.7 11.7 0 0 1-4-.6 9.57 9.57 0 0 1-.964-.373 11.433 11.433 0 0 1-3.743-2.745 10.073 10.073 0 0 1-1.2-1.559c-6.156.984-7.08-5.333-5.85-6.159a1.626 1.626 0 0 1 1.6.13c.486.5 1.837 1.4 2.314 1.842a36.313 36.313 0 0 1-.462-7.081 7.171 7.171 0 0 1 1.58-3.963 5.594 5.594 0 0 1 2.441-1.759c1.557-.532 2.542.824 5.456.824s5.048-2.632 5.623-3.039 1.72 1.324 1.72 1.324c.054.088.108.183.166.276.976 1.595 2.946 9.171 2.084 16.246z" transform="translate(-1181.736 -443.099)" style="stroke-width:.206px;fill:#f7fcff;stroke:#002226"/>
                    <path data-name="Path 2900" d="M1366.365 450.812s-1.147-1.734-1.72-1.324-2.708 3.039-5.623 3.039-3.9-1.356-5.456-.824a5.622 5.622 0 0 0-2.471 1.793 7.181 7.181 0 0 0-1.548 3.924 36.309 36.309 0 0 0 .462 7.081c-.237-.213-.7-.55-1.152-.895a11.809 11.809 0 0 1-1.161-.947c-.487-.5-1.39-6.692-.818-10.552.345-2.29 2.422-5.048 5.161-6.914a11.28 11.28 0 0 1 6.165-2.114c5.252.005 7.864 5.039 8.161 7.733z" transform="translate(-1181.738 -443.084)" style="fill:#002226"/>
                    <g data-name="Group 11484">
                        <path data-name="Path 2901" d="M1361.874 474.034c-.04.487-.1 1.141-.192 1.855-.034.247-.076.5-.115.754-.3 1.992-.85 4.136-1.79 4.3-1.787.309-3.939-1.725-4.615-3.322a7.725 7.725 0 0 1-.324-.977c-.12-.412-.24-.895-.364-1.4-.5-2.084-1-4.61-1.317-4.931h.006a11.2 11.2 0 0 0 4.707 3.118 11.7 11.7 0 0 0 4.004.603z" transform="translate(-1181.754 -443.147)" style="stroke-width:.206px;fill:#f7fcff;stroke:#002226"/>
                    </g>
                    <g data-name="Group 11485">
                        <path data-name="Path 2902" d="M1382.62 519.245h-.013a.123.123 0 0 1-.108-.138c.355-3.149 3.569-5.4 3.958-5.666.2-.534 2.138-5.623 3.349-6.476.284-.2.513-.236.685-.113.439.317.218 1.723-.037 2.815.9-1.811 2.589-5.023 3.394-5.284a.126.126 0 0 1 .155.081.121.121 0 0 1-.08.155c-.814.261-3.022 4.647-3.805 6.314a.128.128 0 0 1-.155.062.125.125 0 0 1-.075-.152c.581-1.931.778-3.561.46-3.792-.1-.069-.269.026-.4.116-1.191.837-3.254 6.345-3.275 6.4a.1.1 0 0 1-.048.059c-.035.025-3.527 2.344-3.883 5.512a.125.125 0 0 1-.122.107z" transform="translate(-1181.822 -443.225)" style="fill:#350502"/>
                    </g>
                </g>
                <path data-name="Path 2903" d="M1362.963 509.468c0 .659-.2 1.2-.452 1.2s-.454-.536-.454-1.2.2-1.2.454-1.2.452.541.452 1.2z" transform="translate(-1181.774 -443.235)" style="fill:#001a35"/>
                <path data-name="Path 2904" d="M1362.346 527.788c0 .659-.2 1.2-.452 1.2s-.454-.536-.454-1.2.2-1.2.454-1.2.452.541.452 1.2z" transform="translate(-1181.773 -443.277)" style="fill:#001a35"/>
                <path data-name="Path 2905" d="M1361.892 545.771c0 .66-.2 1.2-.453 1.2s-.453-.535-.453-1.2.2-1.194.453-1.194.453.536.453 1.194z" transform="translate(-1181.772 -443.319)" style="fill:#001a35"/>
            </g>
            <g data-name="Group 11488" style="opacity:.3">
                <path data-name="Rectangle 2698" style="fill:#002226;opacity:.3" d="M0 0h51.845v79.467H0z" transform="translate(322.376 19.917)"/>
                <path data-name="Rectangle 2699" transform="translate(327.583 27.75)" style="fill:#cde8f7" d="M0 0h41.938v4.754H0z"/>
                <path data-name="Rectangle 2700" transform="translate(327.583 73.725)" style="fill:#cde8f7" d="M0 0h41.938v4.754H0z"/>
                <path data-name="Rectangle 2701" transform="translate(327.583 83.061)" style="fill:#cde8f7" d="M0 0h41.938v4.754H0z"/>
                <path data-name="Rectangle 2702" transform="translate(327.583 91.723)" style="fill:#cde8f7" d="M0 0h41.938v4.754H0z"/>
                <path data-name="Rectangle 2703" transform="translate(327.583 37.257)" style="fill:#cde8f7" d="M0 0h22.491v32.844H0z"/>
                <path data-name="Rectangle 2704" transform="translate(352.181 37.257)" style="fill:#cde8f7" d="M0 0h17.34v1.945H0z"/>
                <path data-name="Rectangle 2705" transform="translate(352.181 42.119)" style="fill:#cde8f7" d="M0 0h17.34v1.945H0z"/>
                <path data-name="Rectangle 2706" transform="translate(352.181 47.413)" style="fill:#cde8f7" d="M0 0h17.34v1.945H0z"/>
                <path data-name="Rectangle 2707" transform="translate(352.181 52.707)" style="fill:#cde8f7" d="M0 0h17.34v1.945H0z"/>
                <path data-name="Rectangle 2708" transform="translate(352.181 57.569)" style="fill:#cde8f7" d="M0 0h17.34v1.945H0z"/>
                <path data-name="Rectangle 2709" transform="translate(352.181 62.862)" style="fill:#cde8f7" d="M0 0h17.34v1.945H0z"/>
                <path data-name="Rectangle 2710" transform="translate(352.181 68.156)" style="fill:#cde8f7" d="M0 0h17.34v1.945H0z"/>
            </g>
            <g data-name="Group 11507">
                <g data-name="Group 11494">
                    <path data-name="Path 2906" d="M1569.274 569.69c-.042.081-.085.164-.129.243a54.271 54.271 0 0 1-11.476 14.922l-.224.2a44.731 44.731 0 0 1-18.071 10.057c-.1.027-.193.055-.289.079.2-.144.393-.288.585-.438a32.022 32.022 0 0 0 11.367-16.959 73.767 73.767 0 0 0 1.409-7.315c.02-.113.036-.223.056-.335a34.722 34.722 0 0 1 2.468-9.173 11.529 11.529 0 0 1 4.094-4.926c.065-.041.131-.078.2-.116a6.309 6.309 0 0 1 2.888-.879 10.893 10.893 0 0 1 5.935 1.58l.195.119a6.679 6.679 0 0 1 3.392 5.238 13.934 13.934 0 0 1-1.82 6.56q-.284.572-.58 1.143z" transform="translate(-1182.183 -443.343)" style="stroke-width:.203px;stroke:#002226;fill:#e0ebfd"/>
                    <g data-name="Group 11489">
                        <path data-name="Path 2907" d="m1568.281 556.749-7.72 12.261-.124.195-3.678 5.843-.031.051-4.841 7.692-.123.193-.955 1.516c-1.783 2.829-3.8 6.035-6.709 8.157a20.012 20.012 0 0 1-4.723 2.453c-.1.027-.193.055-.289.079.2-.144.393-.288.585-.438a19.02 19.02 0 0 0 4.292-2.278c2.873-2.1 4.879-5.281 6.65-8.092l5.846-9.288.125-.195 7.7-12.238.124-.195 3.677-5.839z" transform="translate(-1182.183 -443.347)" style="fill:#fff"/>
                    </g>
                    <g data-name="Group 11490">
                        <path data-name="Path 2908" d="M1569.324 569.722c-.042.081-.085.164-.129.243a22.611 22.611 0 0 1-8.71-.724v-.008l.064-.21.06.016a22.315 22.315 0 0 0 8.715.683z" transform="translate(-1182.232 -443.375)" style="fill:#fff"/>
                    </g>
                    <g data-name="Group 11491">
                        <path data-name="Path 2909" d="m1564.536 562.538-.146.176c-.02-.016-.039-.034-.058-.051a21.6 21.6 0 0 1-5.22-6.62c.065-.041.131-.078.2-.116a21.375 21.375 0 0 0 5.147 6.541.736.736 0 0 0 .077.07z" transform="translate(-1182.229 -443.345)" style="fill:#fff"/>
                    </g>
                    <g data-name="Group 11492">
                        <path data-name="Path 2910" d="m1556.8 575.088-.04.047-.107.129c-.054-.046-.1-.091-.159-.136a21.5 21.5 0 0 1-4.013-4.616c.02-.113.036-.223.056-.335a21.236 21.236 0 0 0 4.082 4.757c.058.051.114.1.174.149z" transform="translate(-1182.214 -443.378)" style="fill:#fff"/>
                    </g>
                    <g data-name="Group 11493">
                        <path data-name="Path 2911" d="m1557.7 584.919-.224.2a16.418 16.418 0 0 1-5.167-1.795q-.257-.133-.518-.275c-.033-.017-.066-.037-.1-.054l.108-.2c.037.022.075.042.112.061a16.561 16.561 0 0 0 5.789 2.063z" transform="translate(-1182.212 -443.407)" style="fill:#fff"/>
                    </g>
                </g>
                <g data-name="Group 11500">
                    <path data-name="Path 2912" d="M1553.844 562.368v.275a54.294 54.294 0 0 1-3.33 18.528c-.034.094-.07.186-.107.28a44.733 44.733 0 0 1-11.423 17.24c-.073.068-.146.137-.22.2.11-.218.216-.437.318-.657a32.031 32.031 0 0 0 2.3-20.286 73.937 73.937 0 0 0-2.113-7.144c-.035-.109-.071-.213-.1-.323a34.744 34.744 0 0 1-2.026-9.279 11.531 11.531 0 0 1 1.371-6.258c.039-.066.08-.13.121-.194a6.309 6.309 0 0 1 2.161-2.108 10.9 10.9 0 0 1 6-1.326c.074 0 .151.011.227.016a6.677 6.677 0 0 1 5.419 3.091 13.921 13.921 0 0 1 1.4 6.662c-.002.426.002.856.002 1.283z" transform="translate(-1182.179 -443.334)" style="stroke-width:.203px;stroke:#002226;fill:#e0ebfd"/>
                    <g data-name="Group 11495">
                        <path data-name="Path 2913" d="m1547.014 551.331-1.214 14.439-.021.229-.58 6.88-.005.06-.764 9.061-.021.228-.15 1.786c-.282 3.331-.6 7.108-2.207 10.328a20.015 20.015 0 0 1-3.066 4.351c-.073.068-.146.137-.22.2.11-.219.217-.437.318-.657a19.073 19.073 0 0 0 2.764-4c1.587-3.182 1.9-6.932 2.184-10.244l.921-10.936.021-.229 1.212-14.409.02-.229.581-6.876c.074.006.151.013.227.018z" transform="translate(-1182.182 -443.334)" style="fill:#fff"/>
                    </g>
                    <g data-name="Group 11496">
                        <path data-name="Path 2914" d="M1553.864 562.394v.275a22.592 22.592 0 0 1-8.067 3.362v-.007l-.041-.216.062-.013a22.31 22.31 0 0 0 8.046-3.401z" transform="translate(-1182.199 -443.36)" style="fill:#fff"/>
                    </g>
                    <g data-name="Group 11497">
                        <path data-name="Path 2915" d="m1546.31 558.224-.05.223-.075-.018a21.6 21.6 0 0 1-7.679-3.478c.039-.066.08-.13.121-.193a21.4 21.4 0 0 0 7.578 3.442l.105.024z" transform="translate(-1182.182 -443.342)" style="fill:#fff"/>
                    </g>
                    <g data-name="Group 11498">
                        <path data-name="Path 2916" d="m1545.206 572.929-.014.059-.036.164-.2-.048a21.459 21.459 0 0 1-5.686-2.254c-.035-.109-.071-.213-.1-.323a21.228 21.228 0 0 0 5.812 2.348c.075.018.148.036.223.052z" transform="translate(-1182.183 -443.379)" style="fill:#fff"/>
                    </g>
                    <g data-name="Group 11499">
                        <path data-name="Path 2917" d="M1550.529 581.241c-.034.094-.07.187-.106.28a16.414 16.414 0 0 1-5.414.782c-.193 0-.388 0-.587-.007h-.111v-.227h.128a16.539 16.539 0 0 0 6.09-.828z" transform="translate(-1182.195 -443.404)" style="fill:#fff"/>
                    </g>
                </g>
                <g data-name="Group 11506">
                    <path data-name="Path 2918" d="M1531.289 562.492c.049.076.1.155.147.232a54.273 54.273 0 0 1 7.223 17.384l.062.293a44.729 44.729 0 0 1-.278 20.679c-.025.1-.049.194-.076.289a24.732 24.732 0 0 0-.089-.725 32.02 32.02 0 0 0-9.045-18.3 74.1 74.1 0 0 0-5.642-4.866c-.088-.073-.176-.142-.263-.215a34.769 34.769 0 0 1-6.724-6.708 11.523 11.523 0 0 1-2.232-6v-.227a6.318 6.318 0 0 1 .677-2.942 10.9 10.9 0 0 1 4.327-4.361l.2-.109a6.677 6.677 0 0 1 6.23-.333 13.934 13.934 0 0 1 4.782 4.845c.233.345.469.704.701 1.064z" transform="translate(-1182.126 -443.345)" style="stroke-width:.203px;stroke:#002226;fill:#e0ebfd"/>
                    <g data-name="Group 11501">
                        <path data-name="Path 2919" d="m1519.581 556.909 6.788 12.8.106.2 3.234 6.1.028.053L1534 584.1l.106.2.84 1.583c1.565 2.954 3.34 6.3 3.732 9.879a20.055 20.055 0 0 1-.225 5.319c-.025.1-.049.193-.076.289a25.158 25.158 0 0 0-.089-.725 19.094 19.094 0 0 0 .162-4.856c-.387-3.535-2.15-6.86-3.706-9.8l-5.142-9.7-.107-.2-6.776-12.773-.106-.2-3.233-6.1z" transform="translate(-1182.138 -443.347)" style="fill:#fff"/>
                    </g>
                    <g data-name="Group 11502">
                        <path data-name="Path 2920" d="M1531.317 562.507c.049.076.1.155.147.232a22.585 22.585 0 0 1-4.966 7.192l-.005-.005-.151-.159.045-.045a22.321 22.321 0 0 0 4.93-7.215z" transform="translate(-1182.154 -443.36)" style="fill:#fff"/>
                    </g>
                    <g data-name="Group 11503">
                        <path data-name="Path 2921" d="m1522.7 563.093.078.214c-.023.01-.048.018-.073.026a21.6 21.6 0 0 1-8.339 1.229v-.227a21.414 21.414 0 0 0 8.236-1.206c.033-.011.068-.023.098-.036z" transform="translate(-1182.126 -443.362)" style="fill:#fff"/>
                    </g>
                    <g data-name="Group 11504">
                        <path data-name="Path 2922" d="m1529.729 576.057.021.058.058.157-.2.07a21.468 21.468 0 0 1-6 1.18c-.088-.073-.176-.142-.263-.214a21.236 21.236 0 0 0 6.157-1.17c.073-.025.144-.049.216-.077z" transform="translate(-1182.147 -443.392)" style="fill:#fff"/>
                    </g>
                    <g data-name="Group 11505">
                        <path data-name="Path 2923" d="m1538.7 580.164.062.293a16.411 16.411 0 0 1-4.129 3.587q-.244.157-.5.311c-.031.02-.065.039-.1.059l-.119-.194c.038-.022.073-.045.109-.068a16.55 16.55 0 0 0 4.677-3.988z" transform="translate(-1182.171 -443.401)" style="fill:#fff"/>
                    </g>
                </g>
                <path data-name="Path 2924" d="m1557.679 599.989-.5 3.6-1.531 11.116-.721 5.238-2.365 17.177H1533l-2.365-17.177-.721-5.238-1.531-11.116-.5-3.6z" transform="translate(-1182.157 -443.447)" style="stroke-width:.206px;fill:#f7fcff;stroke:#002226"/>
                <path data-name="Path 2925" d="M1557.679 599.969h-29.789l1.713-3.516 2.511-5.152h22.674l1.717 5.152z" transform="translate(-1182.157 -443.427)" style="stroke-width:.206px;fill:#f7fcff;stroke:#002226"/>
                <path data-name="Path 2926" d="m1557.679 599.981-.5 3.6h-28.8l-.5-3.6 1.713-3.516h26.9z" transform="translate(-1182.157 -443.439)" style="stroke-width:.206px;fill:#f7fcff;stroke:#002226"/>
                <path data-name="Path 2927" d="m1555.657 614.734-.721 5.238h-24.294l-.721-5.238z" transform="translate(-1182.162 -443.481)" style="stroke-width:.206px;fill:#f7fcff;stroke:#002226"/>
            </g>
        </g>
        <path data-name="Line 225-3" transform="translate(.478 193.689)" style="fill:none;stroke:#1a5dfd;stroke-linecap:round;stroke-miterlimit:10;stroke-width:.956px" d="M0 0h426.639"/>
    </g>
</svg>
